<svg xmlns="http://www.w3.org/2000/svg" xmlns:xlink="http://www.w3.org/1999/xlink" width="283" height="379" fill="none" xmlns:v="https://vecta.io/nano"><g stroke="#4c4f62" stroke-width="5"><path d="M11.762 33.368c-1.456-.206.586-1.324.974-1.567 5.417-3.397 11.455-5.952 17.281-8.556 11.013-4.923 22.002-9.096 33.831-11.569 8.87-1.854 14.775-3.743 23.913-2.169 22.319 3.844 28.417 29.813 31.276 48.685 1.89 12.477 3.897 24.948 7.728 36.996 2.422 7.619 2.305 15.646 4.867 23.258 3.227 9.587 5.836 22.457-4.928 28.32-8.71 4.744-17.209 10.982-27.321 12.412-7.314 1.035-14.284 4.901-21.662 5.423-8.593.608 1.537 7.371 4.624 9.701 4.479 3.379 8.671 6.959 12.656 10.906 10.823 10.718-19.567 7.643-24.582 6.508-9.73-2.203-20.354-1.037-29.633-4.821-4.718-1.923-9.739-2.771-14.786-2.771M280.101 3c-9.653 4.552-20.153 7.046-30.302 10.243-14.491 4.566-28.622 9.959-43.324 13.859-12.711 3.372-31.495 5.889-41.133 15.787-5.896 6.055-6.908 16.094-6.815 24.102.169 14.519 6.905 27.816 9.857 41.816 3.126 14.823 5.41 32.406 12.292 46.035 5.813 11.513 11.867 5.583 22.635 4.398 4.471-.492 8.895-1.551 13.265-2.169 7.263-1.027-.43 7.749-1.643 10.243-4.231 8.703-10.433 16.401-15.82 24.403-.964 1.431-4.639 10.554-2.739 8.135 4.276-5.444 12.46-7.234 18.072-10.846 7.079-4.557 15.253-11.025 20.81-17.353 7.538-8.584 19.371-16.129 29.512-21.15M30.382 248.114c30.438-15.07 61.66-25.328 94.131-34.706 6.44-1.86 12.918-2.529 19.532-3.495 3.908-.571 9.255-2.314 13.144-1.687 8.246 1.329 10.804 5.329 14.481 12.352 7.333 14.003 10.514 29.108 16.673 43.564 3.52 8.263 8.521 16.461 10.709 25.126 1.05 4.159 4.381 7.975 4.381 12.231 0 14.481-13.145 17.872-24.704 21.993-4.503 1.606-9.031 2.806-13.63 4.037-.617.165-6.972 2.733-6.937 2.772 2.533 2.787 7.409 3.607 10.223 6.266 4.19 3.961 7.199 8.105 10.952 12.353 2.218 2.509 10.214 10.906 4.381 10.906-12.158 0-23.839-4.252-34.5-9.701-3.563-1.821-16.575-8.743-20.263-6.809-10.035 5.261-20.447 11.204-31.215 15.365-16.439 6.352-34.637 8.052-51.538 12.834-13.641 3.859-30.201 7.965-43.202.241" stroke-linecap="round"/><g fill="#3b3c43"><use xlink:href="#B"/><use xlink:href="#B" x="-61.601" y="20"/><use xlink:href="#B" x="-71.7" y="-189"/><use xlink:href="#B" x="88.867" y="-189"/></g></g><defs ><path id="B" d="M150.968 280.5c0 9.366-7.674 17-17.192 17s-17.192-7.634-17.192-17 7.674-17 17.192-17 17.192 7.634 17.192 17z"/></defs></svg>