<svg width="94" height="113" viewBox="0 0 94 113" fill="none" xmlns="http://www.w3.org/2000/svg">
<path d="M8.81873 58.8387V77H6.44877V58.8387H8.81873ZM14.6563 58.8387V60.8095H0.623672V58.8387H14.6563ZM38.4092 66.647V68.6054H28.5802V66.647H38.4092ZM28.9544 58.8387V77H26.547V58.8387H28.9544ZM40.5048 58.8387V77H38.1099V58.8387H40.5048ZM65.5175 75.0417V77H55.9005V75.0417H65.5175ZM56.387 58.8387V77H53.9796V58.8387H56.387ZM64.2452 66.647V68.6054H55.9005V66.647H64.2452ZM65.3928 58.8387V60.8095H55.9005V58.8387H65.3928ZM6.88534 101.512L10.4902 88.8387H12.2364L11.2261 93.7657L7.34686 107H5.61305L6.88534 101.512ZM3.15578 88.8387L6.02467 101.262L6.88534 107H5.16401L0.76088 88.8387H3.15578ZM16.9015 101.25L19.708 88.8387H22.1154L17.7248 107H16.0034L16.9015 101.25ZM12.4984 88.8387L16.0034 101.512L17.2757 107H15.5419L11.7999 93.7657L10.7771 88.8387H12.4984ZM40.1555 90.4477L34.1433 107H31.686L38.6088 88.8387H40.1929L40.1555 90.4477ZM45.1948 107L39.1701 90.4477L39.1327 88.8387H40.7168L47.6645 107H45.1948ZM44.8829 100.277V102.248H34.6797V100.277H44.8829ZM70.3073 105.042V107H61.2267V105.042H70.3073ZM61.7006 88.8387V107H59.2933V88.8387H61.7006ZM93.2744 105.042V107H84.1938V105.042H93.2744ZM84.6677 88.8387V107H82.2604V88.8387H84.6677Z" fill="white"/>
<path d="M41.4 0H4.6C2.07 0 0 2.07 0 4.6V46L9.2 36.8H41.4C43.93 36.8 46 34.73 46 32.2V4.6C46 2.07 43.93 0 41.4 0ZM41.4 32.2H7.36L4.6 34.96V4.6H41.4V32.2ZM34.5 20.7H29.9V16.1H34.5M25.3 20.7H20.7V16.1H25.3M16.1 20.7H11.5V16.1H16.1" fill="#00A3FF"/>
</svg>
