<svg width="138" height="28" viewBox="0 0 138 28" fill="none" xmlns="http://www.w3.org/2000/svg">
<path d="M25.2 0H2.8C1.26 0 0 1.26 0 2.8V28L5.6 22.4H25.2C26.74 22.4 28 21.14 28 19.6V2.8C28 1.26 26.74 0 25.2 0ZM25.2 19.6H4.48L2.8 21.28V2.8H25.2V19.6ZM21 12.6H18.2V9.8H21M15.4 12.6H12.6V9.8H15.4M9.8 12.6H7V9.8H9.8" fill="#00A3FF"/>
<path opacity="0.9" d="M45.2495 7.07031V22H43.3013V7.07031H45.2495ZM50.0483 7.07031V8.69043H38.5127V7.07031H50.0483ZM62.0146 13.4893V15.0991H53.9346V13.4893H62.0146ZM54.2422 7.07031V22H52.2632V7.07031H54.2422ZM63.7373 7.07031V22H61.7686V7.07031H63.7373ZM76.7393 20.3901V22H68.8335V20.3901H76.7393ZM69.2334 7.07031V22H67.2544V7.07031H69.2334ZM75.6934 13.4893V15.0991H68.8335V13.4893H75.6934ZM76.6367 7.07031V8.69043H68.8335V7.07031H76.6367ZM88.3262 17.4883L91.2896 7.07031H92.7251L91.8945 11.1206L88.7056 22H87.2803L88.3262 17.4883ZM85.2603 7.07031L87.6187 17.2832L88.3262 22H86.9111L83.2915 7.07031H85.2603ZM96.5601 17.2729L98.8672 7.07031H100.846L97.2368 22H95.8218L96.5601 17.2729ZM92.9404 7.07031L95.8218 17.4883L96.8677 22H95.4424L92.3662 11.1206L91.5254 7.07031H92.9404ZM108.116 8.39307L103.174 22H101.154L106.845 7.07031H108.147L108.116 8.39307ZM112.259 22L107.306 8.39307L107.275 7.07031H108.578L114.289 22H112.259ZM112.002 16.4731V18.0933H103.615V16.4731H112.002ZM125.343 20.3901V22H117.878V20.3901H125.343ZM118.268 7.07031V22H116.289V7.07031H118.268ZM136.663 20.3901V22H129.198V20.3901H136.663ZM129.588 7.07031V22H127.609V7.07031H129.588Z" fill="white"/>
</svg>
