<svg xmlns="http://www.w3.org/2000/svg" width="438" height="113" fill="none" xmlns:v="https://vecta.io/nano"><path d="M362.4 34h-36.8c-2.53 0-4.6 2.07-4.6 4.6V80l9.2-9.2h32.2c2.53 0 4.6-2.07 4.6-4.6V38.6c0-2.53-2.07-4.6-4.6-4.6zm0 32.2h-34.04l-2.76 2.76V38.6h36.8v27.6zm-6.9-11.5h-4.6v-4.6h4.6m-9.2 4.6h-4.6v-4.6h4.6m-9.2 4.6h-4.6v-4.6h4.6" fill="#4c5278"/><path d="M188.819 58.839V77h-2.37V58.839h2.37zm5.837 0v1.971h-14.032v-1.971h14.032zm23.753 7.808v1.958h-9.829v-1.958h9.829zm-9.455-7.808V77h-2.407V58.839h2.407zm11.551 0V77h-2.395V58.839h2.395zm25.013 16.203V77H235.9v-1.958h9.618zm-9.131-16.203V77h-2.407V58.839h2.407zm7.858 7.808v1.958H235.9v-1.958h8.345zm1.148-7.808v1.971H235.9v-1.971h9.493zm-58.508 42.673l3.605-12.673h1.746l-1.01 4.927L187.347 107h-1.734l1.272-5.488zm-3.729-12.673l2.869 12.423.86 5.738h-1.721l-4.403-18.161h2.395zm13.746 12.411l2.806-12.411h2.407L197.725 107h-1.722l.899-5.75zm-4.404-12.411l3.505 12.673 1.273 5.488h-1.734L191.8 93.766l-1.023-4.927h1.721zm27.658 1.609L214.143 107h-2.457l6.923-18.161h1.584l-.037 1.609zM225.195 107l-6.025-16.552-.037-1.609h1.584L227.665 107h-2.47zm-.312-6.723v1.971H214.68v-1.971h10.203zm25.424 4.765V107h-9.08v-1.958h9.08zm-8.606-16.203V107h-2.408V88.839h2.408zm31.573 16.203V107h-9.08v-1.958h9.08zm-8.606-16.203V107h-2.408V88.839h2.408z" fill="#fff"/><path d="M221.4 0h-36.8c-2.53 0-4.6 2.07-4.6 4.6V46l9.2-9.2h32.2c2.53 0 4.6-2.07 4.6-4.6V4.6c0-2.53-2.07-4.6-4.6-4.6zm0 32.2h-34.04l-2.76 2.76V4.6h36.8v27.6zm-6.9-11.5h-4.6v-4.6h4.6m-9.2 4.6h-4.6v-4.6h4.6m-9.2 4.6h-4.6v-4.6h4.6" fill="#00a3ff"/><path d="M398.805 53.695c.26-.26.26-.693 0-.94l-1.56-1.56c-.246-.26-.68-.26-.94 0l-1.226 1.22 2.5 2.5M387 60.5V63h2.5l7.372-7.379-2.5-2.5L387 60.5z" fill="#a2a2ff"/><path d="M419 51.667h-2.5l-.714-.667h-3.572l-.714.667H409V53h10m-9.286 8.667a1.29 1.29 0 0 0 .419.943c.268.25.631.391 1.01.391h5.714c.379 0 .742-.141 1.01-.391a1.29 1.29 0 0 0 .419-.943v-8h-8.572v8z" fill="#a3a3ff"/><path d="M25.2 43H2.8A2.81 2.81 0 0 0 0 45.8V71l5.6-5.6h19.6a2.81 2.81 0 0 0 2.8-2.8V45.8a2.81 2.81 0 0 0-2.8-2.8zm0 19.6H4.48L2.8 64.28V45.8h22.4v16.8zm-4.2-7h-2.8v-2.8H21m-5.6 2.8h-2.8v-2.8h2.8m-5.6 2.8H7v-2.8h2.8" fill="#00a3ff"/><g fill="#fff"><path opacity=".9" d="M45.25 50.07V65h-1.948V50.07h1.948zm4.799 0v1.62H38.513v-1.62h11.536zm11.966 6.419v1.61h-8.08v-1.61h8.08zm-7.772-6.419V65h-1.979V50.07h1.979zm9.495 0V65h-1.969V50.07h1.969zm13.002 13.32V65h-7.906v-1.61h7.906zm-7.506-13.32V65h-1.979V50.07h1.979zm6.46 6.419v1.61h-6.86v-1.61h6.86zm.943-6.419v1.62h-7.803v-1.62h7.803zm11.689 10.418L91.29 50.07h1.436l-.831 4.05L88.706 65H87.28l1.046-4.512zM85.26 50.07l2.358 10.213.707 4.717h-1.415l-3.62-14.93h1.969zm11.3 10.203l2.307-10.203h1.979L97.237 65h-1.415l.738-4.727zM92.94 50.07l2.881 10.418L96.868 65h-1.425l-3.076-10.879-.841-4.05h1.415zm15.176 1.323L103.174 65h-2.02l5.691-14.93h1.302l-.031 1.323zM112.259 65l-4.953-13.607-.031-1.323h1.303L114.289 65h-2.03zm-.257-5.527v1.62h-8.387v-1.62h8.387zm13.341 3.917V65h-7.465v-1.61h7.465zm-7.075-13.32V65h-1.979V50.07h1.979zm18.395 13.32V65h-7.465v-1.61h7.465zm-7.075-13.32V65h-1.979V50.07h1.979z"/><path d="M433.002 59.093l1.871-1.871h-6.984v-1.444h6.984l-1.871-1.871 1.026-1.018 3.611 3.611-3.611 3.611-1.026-1.018zM436.556 50c.383 0 .75.152 1.021.423s.423.638.423 1.021v3.373l-1.444-1.444v-1.928h-10.112v10.111h10.112v-1.928L438 58.183v3.373c0 .383-.152.75-.423 1.021s-.638.423-1.021.423h-10.112c-.801 0-1.444-.65-1.444-1.444V51.444A1.44 1.44 0 0 1 426.444 50h10.112z"/></g></svg>