<svg width="97" height="13" viewBox="0 0 97 13" fill="none" xmlns="http://www.w3.org/2000/svg">
<path d="M11.805 2.69463C12.065 2.43466 12.065 2.00139 11.805 1.75476L10.2452 0.194973C9.99861 -0.064991 9.56534 -0.064991 9.30537 0.194973L8.07888 1.4148L10.5785 3.91446M0 9.50035V12H2.49965L9.87196 4.62102L7.37231 2.12137L0 9.50035Z" fill="#A2A2FF"/>
<path d="M32 0.666667H29.5L28.7857 0H25.2143L24.5 0.666667H22V2H32M22.7143 10.6667C22.7143 11.0203 22.8648 11.3594 23.1327 11.6095C23.4006 11.8595 23.764 12 24.1429 12H29.8571C30.236 12 30.5994 11.8595 30.8673 11.6095C31.1352 11.3594 31.2857 11.0203 31.2857 10.6667V2.66667H22.7143V10.6667Z" fill="#A3A3FF"/>
<path d="M92.0022 9.09278L93.8728 7.22222H86.8889V5.77778H93.8728L92.0022 3.90722L93.0278 2.88889L96.6389 6.5L93.0278 10.1111L92.0022 9.09278ZM95.5556 0C95.9386 0 96.306 0.152182 96.5769 0.423068C96.8478 0.693954 97 1.06135 97 1.44444V4.81722L95.5556 3.37278V1.44444H85.4444V11.5556H95.5556V9.62722L97 8.18278V11.5556C97 11.9386 96.8478 12.306 96.5769 12.5769C96.306 12.8478 95.9386 13 95.5556 13H85.4444C84.6428 13 84 12.35 84 11.5556V1.44444C84 0.642778 84.6428 0 85.4444 0H95.5556Z" fill="white"/>
<path d="M53.805 2.69463C54.065 2.43466 54.065 2.00139 53.805 1.75476L52.2452 0.194973C51.9986 -0.064991 51.5653 -0.064991 51.3054 0.194973L50.0789 1.4148L52.5785 3.91446M42 9.50035V12H44.4997L51.872 4.62102L49.3723 2.12137L42 9.50035Z" fill="white"/>
<path d="M74 0.666667H71.5L70.7857 0H67.2143L66.5 0.666667H64V2H74M64.7143 10.6667C64.7143 11.0203 64.8648 11.3594 65.1327 11.6095C65.4006 11.8595 65.764 12 66.1429 12H71.8571C72.236 12 72.5994 11.8595 72.8673 11.6095C73.1352 11.3594 73.2857 11.0203 73.2857 10.6667V2.66667H64.7143V10.6667Z" fill="white"/>
</svg>
